HIERARCHY
ROOT Hips
{
	OFFSET	0.00	0.00	0.00
	CHANNELS 6 Xposition Yposition Zposition Zrotation Xrotation Yrotation
	JOINT LeftUpLeg
	{
		OFFSET	 0.126116	-0.065224	 0.014019
		CHANNELS 3 Zrotation Xrotation Yrotation
		JOINT LeftLeg
		{
			OFFSET	 0.000000	 0.569914	 0.000000
			CHANNELS 3 Zrotation Xrotation Yrotation
			JOINT LeftFoot
			{
				OFFSET	 0.000000	 0.544423	 0.000000
				CHANNELS 3 Zrotation Xrotation Yrotation
				JOINT LeftToeBase
				{
					OFFSET	 0.000000	 0.207117	 0.000000
					CHANNELS 3 Zrotation Xrotation Yrotation
					End Site
					{
						OFFSET	 0.000000	 0.207117	 0.000000
					}
				}
			}
		}
	}
	JOINT RightUpLeg
	{
		OFFSET	-0.124023	-0.065224	 0.008373
		CHANNELS 3 Zrotation Xrotation Yrotation
		JOINT RightLeg
		{
			OFFSET	 0.000000	 0.570047	 0.000000
			CHANNELS 3 Zrotation Xrotation Yrotation
			JOINT RightFoot
			{
				OFFSET	 0.000000	 0.544354	 0.000000
				CHANNELS 3 Zrotation Xrotation Yrotation
				JOINT RightToeBase
				{
					OFFSET	 0.000000	 0.207540	 0.000000
					CHANNELS 3 Zrotation Xrotation Yrotation
					End Site
					{
						OFFSET	 0.000000	 0.207540	 0.000000
					}
				}
			}
		}
	}
	JOINT Spine
	{
		OFFSET	 0.000184	 0.117403	 0.007763
		CHANNELS 3 Zrotation Xrotation Yrotation
		JOINT Spine1
		{
			OFFSET	 0.000000	 0.137269	 0.000000
			CHANNELS 3 Zrotation Xrotation Yrotation
			JOINT Spine2
			{
				OFFSET	 0.000000	 0.156879	 0.000000
				CHANNELS 3 Zrotation Xrotation Yrotation
				JOINT LeftShoulder
				{
					OFFSET	 0.080501	 0.160143	 0.002496
					CHANNELS 3 Zrotation Xrotation Yrotation
					JOINT LeftArm
					{
						OFFSET	 0.000000	 0.164363	 0.000000
						CHANNELS 3 Zrotation Xrotation Yrotation
						JOINT LeftForeArm
						{
							OFFSET	 0.000000	 0.364576	 0.000000
							CHANNELS 3 Zrotation Xrotation Yrotation
							JOINT LeftHand
							{
								OFFSET	 0.000000	 0.360812	 0.000000
								CHANNELS 3 Zrotation Xrotation Yrotation
								JOINT LeftHandIndex1
								{
									OFFSET	 0.000000	 0.086006	 0.000000
									CHANNELS 3 Zrotation Xrotation Yrotation
									JOINT LeftHandIndex2
									{
										OFFSET	 0.000000	 0.047237	 0.000000
										CHANNELS 3 Zrotation Xrotation Yrotation
										JOINT LeftHandIndex3
										{
											OFFSET	-0.004284	 0.038165	 0.000551
											CHANNELS 3 Zrotation Xrotation Yrotation
											End Site
											{
												OFFSET	-0.004284	 0.038165	 0.000551
											}
										}
									}
								}
							}
						}
					}
				}
				JOINT Neck
				{
					OFFSET	 0.000000	 0.176489	 0.000000
					CHANNELS 3 Zrotation Xrotation Yrotation
					JOINT Head
					{
						OFFSET	 0.000000	 0.077941	 0.001747
						CHANNELS 3 Zrotation Xrotation Yrotation
						End Site
						{
							OFFSET	 0.000000	 0.077941	 0.001747
						}
					}
				}
				JOINT RightShoulder
				{
					OFFSET	-0.080363	 0.159706	-0.000306
					CHANNELS 3 Zrotation Xrotation Yrotation
					JOINT RightArm
					{
						OFFSET	 0.000000	 0.164196	 0.000000
						CHANNELS 3 Zrotation Xrotation Yrotation
						JOINT RightForeArm
						{
							OFFSET	 0.000000	 0.365611	 0.000000
							CHANNELS 3 Zrotation Xrotation Yrotation
							JOINT RightHand
							{
								OFFSET	 0.000000	 0.360648	 0.000000
								CHANNELS 3 Zrotation Xrotation Yrotation
								JOINT RightHandIndex1
								{
									OFFSET	 0.000000	 0.069977	 0.000000
									CHANNELS 3 Zrotation Xrotation Yrotation
									JOINT RightHandIndex2
									{
										OFFSET	 0.000000	 0.052305	 0.000000
										CHANNELS 3 Zrotation Xrotation Yrotation
										JOINT RightHandIndex3
										{
											OFFSET	 0.009002	 0.042196	 0.000782
											CHANNELS 3 Zrotation Xrotation Yrotation
											End Site
											{
												OFFSET	 0.009002	 0.042196	 0.000782
											}
										}
									}
								}
							}
						}
					}
				}
			}
		}
	}
}
MOTION
Frames:    13
Frame Time: 0.03333334
-0.006984	 1.268446	-0.021883	 1.171041	 1.353018	-179.699300	-175.868700	 5.854321	-20.735220	 3.721721	-18.200260	 6.307263	 3.235915	 70.988050	-2.818026	 1.331492	 28.938720	-2.729976	 176.909500	 4.912585	 26.895490	-4.969053	-15.947740	-4.786968	 7.424932	 70.177720	-6.697070	-1.322155	 28.806310	 2.089475	-0.024019	 1.986102	-21.045280	-1.148924	 3.248920	-5.029937	-1.416335	-4.254891	 12.086820	-113.437600	 5.231011	 92.909470	 18.910470	 52.676570	 27.944190	 7.299245	-0.255705	-1.747151	-10.602340	-14.688150	-45.425450	-6.580301	 5.266122	 0.000000	 0.000000	 0.000000	 0.000000	 0.000000	 0.000000	 0.000000	 4.418588	-0.498516	-0.131965	 2.722764	 1.811177	 4.999219	 114.205500	-4.359325	-88.460500	-53.451730	-7.805780	 63.081610	-41.521540	-1.401809	 1.178883	-12.058460	-39.054600	 33.876130	-0.359117	 10.564710	 0.744392	 11.977560	 9.299880	-2.092313	-8.358968	 3.141463	 0.104870
-0.005713	 1.268607	-0.020494	 1.075493	 1.332642	-179.195400	-175.921200	 5.991002	-20.288710	 3.691637	-18.062880	 6.594597	 4.037819	 70.827580	-3.681800	 1.331492	 28.938720	-2.729976	 176.822900	 4.983185	 27.387110	-4.971085	-15.953880	-4.355014	 8.449670	 70.133050	-7.915431	-1.321378	 28.795150	 2.110766	-0.111153	 2.004669	-19.105610	-1.006119	 3.211804	-5.172794	-1.414498	-4.132517	 11.776970	-113.435400	 5.212484	 92.871890	 17.963300	 52.156990	 29.069860	 7.372448	-0.255703	-1.799789	-11.160090	-14.362910	-45.731610	-6.580301	 5.266122	 0.000000	 0.000000	 0.000000	 0.000000	 0.000000	 0.000000	 0.000000	 4.354901	-0.508460	-0.004167	 2.238033	 1.819888	 5.162967	 114.221000	-4.460070	-88.383770	-54.734390	-8.122365	 62.332630	-40.108890	-1.356903	 1.268253	 5.876994	-43.496970	 45.317300	-0.359148	 10.565590	 0.744399	 11.977560	 9.300755	-2.092499	-8.358974	 3.141907	 0.104836
-0.004900	 1.268734	-0.019126	 0.988899	 1.346152	-179.819200	-175.894500	 5.821705	-20.834400	 3.640804	-17.830350	 5.892177	 2.018119	 70.728120	-1.559504	 1.331492	 28.938720	-2.729976	 176.852900	 5.178774	 26.741480	-5.001875	-16.047390	-4.980122	 6.770456	 70.198060	-6.115151	-1.319149	 28.763470	 2.165293	-0.196552	 2.055310	-16.672270	-0.997881	 3.169560	-4.896185	-1.333631	-3.984128	 11.487790	-113.435300	 5.252758	 92.887660	 16.585670	 51.858640	 29.942780	 7.447269	-0.255684	-1.852705	-10.906920	-12.054620	-44.457070	-6.580301	 5.266122	 0.000000	 0.000000	 0.000000	 0.000000	 0.000000	 0.000000	 0.000000	 4.479362	-0.508193	 0.053791	 2.094126	 1.898662	 5.234087	 114.233800	-4.543139	-88.320460	-54.543550	-3.542687	 61.250990	-48.225570	-1.582694	 1.099447	-6.910916	-38.978360	 35.221640	-0.359233	 10.567890	 0.744419	 11.977590	 9.303020	-2.092985	-8.358996	 3.143057	 0.104751
-0.003996	 1.268897	-0.017303	 0.898715	 1.356649	 179.519800	-175.863100	 5.618160	-21.390220	 3.569774	-17.534250	 5.105381	-0.152473	 70.570070	 0.718721	 1.331492	 28.938720	-2.729976	 176.914100	 5.381638	 26.059360	-5.031467	-16.137150	-5.635309	 4.969678	 70.254610	-4.210531	-1.316756	 28.729980	 2.222938	-0.293240	 2.103579	-14.134610	-0.922602	 3.186242	-4.732062	-1.272366	-3.846742	 11.125250	-113.435200	 5.295303	 92.904280	 14.362600	 51.549660	 31.514140	 7.524491	-0.255620	-1.908345	-10.372100	-9.887725	-43.348780	-6.580301	 5.266122	 0.000000	 0.000000	 0.000000	 0.000000	 0.000000	 0.000000	 0.000000	 4.610979	-0.507773	 0.115080	 1.941006	 1.983784	 5.295288	 114.247400	-4.630943	-88.253510	-54.209160	 4.200817	 59.149010	-61.532770	-1.879891	 0.728464	-17.024720	-33.679700	 24.973420	-0.359322	 10.570320	 0.744441	 11.977620	 9.305418	-2.093499	-8.359017	 3.144273	 0.104661
-0.002916	 1.269060	-0.015233	 0.806793	 1.365241	 178.853300	-175.830000	 5.404782	-21.989920	 3.505487	-17.208290	 4.329929	-2.368998	 70.363860	 3.045563	 1.331492	 28.938720	-2.729976	 176.993800	 5.591435	 25.371180	-5.061938	-16.229550	-6.291354	 3.133775	 70.294910	-2.286987	-1.314303	 28.696180	 2.281095	-0.398911	 2.148315	-11.515050	-0.842291	 3.239867	-4.583913	-1.209653	-3.713235	 10.694950	-113.435100	 5.338273	 92.921080	 11.907770	 51.305360	 33.284960	 7.597111	-0.255298	-1.964008	-9.805560	-7.920271	-42.189670	-6.580301	 5.266122	 0.000000	 0.000000	 0.000000	 0.000000	 0.000000	 0.000000	 0.000000	 4.743804	-0.507207	 0.176932	 1.785471	 2.071427	 5.341061	 114.261200	-4.719556	-88.185870	-53.992710	 12.665530	 55.854990	-74.930360	-2.071595	 0.296496	-26.041780	-27.160100	 14.605920	-0.359413	 10.572770	 0.744463	 11.977650	 9.307837	-2.094019	-8.359041	 3.145501	 0.104571
-0.001572	 1.269179	-0.013145	 0.712874	 1.374902	 178.199600	-175.797700	 5.204731	-22.557770	 3.438235	-16.897500	 3.528978	-4.552957	 70.126880	 5.340088	 1.331492	 28.938720	-2.729976	 177.076200	 5.811668	 24.696770	-5.096691	-16.334740	-6.930371	 1.333901	 70.315080	-0.410772	-1.311862	 28.663070	 2.338050	-0.512670	 2.191751	-8.796745	-0.823148	 3.293790	-4.339843	-1.122017	-3.567868	 10.205240	-113.435000	 5.380367	 92.937550	 9.856882	 51.197810	 34.740890	 7.666758	-0.255011	-2.018104	-9.518536	-6.125779	-40.742570	-6.580301	 5.266122	 0.000000	 0.000000	 0.000000	 0.000000	 0.000000	 0.000000	 0.000000	 4.873922	-0.506513	 0.237521	 1.632089	 2.158803	 5.369139	 114.274900	-4.806355	-88.119630	-53.574960	 20.509750	 51.625950	-86.020990	-2.140637	-0.078328	-34.077860	-19.002350	 4.684423	-0.359501	 10.575180	 0.744484	 11.977680	 9.310206	-2.094528	-8.359063	 3.146703	 0.104482
 0.000156	 1.269233	-0.011194	 0.620626	 1.393315	 177.635200	-175.765200	 5.043960	-23.045700	 3.382013	-16.636830	 2.800709	-6.505701	 69.878230	 7.387074	 1.331492	 28.938720	-2.729976	 177.149100	 6.028100	 24.109870	-5.134784	-16.449910	-7.506183	-0.293934	 70.316600	 1.279315	-1.309389	 28.630020	 2.395272	-0.632431	 2.233025	-5.900058	-0.901790	 3.338198	-3.924784	-1.003969	-3.415162	 9.618914	-113.435100	 5.420389	 92.954280	 8.678246	 51.288330	 35.467910	 7.736916	-0.254807	-2.070896	-9.567029	-4.655884	-38.804590	-6.580301	 5.266122	 0.000000	 0.000000	 0.000000	 0.000000	 0.000000	 0.000000	 0.000000	 4.998168	-0.502226	 0.281962	 1.552043	 2.226712	 5.335600	 114.287000	-4.882355	-88.060900	-52.008930	 26.783970	 46.222580	-94.207570	-2.137102	-0.346586	-40.862150	-9.931709	-3.832221	-0.362977	 10.674940	 0.745130	 11.978970	 9.407841	-2.115521	-8.360115	 3.200472	 0.101028
 0.002600	 1.269220	-0.009429	 0.572575	 1.467286	 177.956700	-175.734400	 5.034706	-22.725680	 3.356581	-16.518730	 2.968867	-6.105190	 69.731250	 6.865046	 1.331492	 28.938720	-2.729976	 177.180600	 6.030169	 24.404330	-5.143971	-16.477720	-7.506857	-0.382491	 70.361260	 1.296796	-1.306523	 28.592450	 2.464485	-0.732178	 2.244192	-2.989244	-0.894010	 3.561345	-3.624430	-1.031319	-3.437251	 8.597836	-113.436000	 5.444071	 92.977010	 8.094710	 51.642240	 35.294320	 7.810022	-0.254793	-2.123010	-7.476218	-6.036445	-36.628790	-6.580301	 5.266122	 0.000000	 0.000000	 0.000000	 0.000000	 0.000000	 0.000000	 0.000000	 5.077071	-0.459206	 0.155303	 2.277962	 2.077041	 4.796166	 114.282700	-4.851521	-88.076590	-45.097340	 27.892070	 32.393360	-101.073600	-2.098375	-0.561445	-45.263200	-9.095789	-8.996063	-0.404525	 11.863670	 0.753256	 11.997290	 10.571070	-2.366322	-8.372443	 3.842126	 0.059988
 0.005126	 1.269171	-0.007870	 0.533661	 1.530583	 178.232700	-175.692400	 5.041695	-22.450700	 3.339139	-16.437630	 3.114973	-5.779620	 69.606030	 6.425186	 1.331492	 28.938720	-2.729976	 177.212500	 6.054216	 24.658010	-5.157464	-16.518480	-7.508499	-0.463896	 70.396730	 1.311435	-1.304019	 28.560140	 2.523983	-0.818813	 2.263975	-0.353928	-0.955489	 3.720834	-3.229406	-1.031379	-3.401813	 7.660431	-113.436800	 5.464427	 92.996560	 8.036483	 52.127420	 34.799000	 7.875719	-0.254975	-2.167384	-5.873323	-7.143078	-34.336830	-6.580301	 5.266122	 0.000000	 0.000000	 0.000000	 0.000000	 0.000000	 0.000000	 0.000000	 5.144994	-0.422354	 0.046342	 2.901474	 1.945033	 4.319406	 114.278900	-4.825001	-88.090090	-39.754360	 27.272080	 20.019530	-106.348000	-2.046825	-0.718035	-47.868660	-7.797420	-14.689000	-0.440552	 12.886160	 0.760983	 12.017250	 11.571550	-2.583149	-8.382684	 4.393936	 0.024779
 0.007838	 1.269077	-0.006291	 0.486751	 1.596979	 178.512300	-175.654300	 5.059767	-22.173880	 3.324288	-16.368520	 3.263383	-5.459145	 69.478030	 5.989305	 1.331492	 28.938720	-2.729976	 177.236900	 6.093469	 24.914120	-5.178126	-16.580860	-7.511656	-0.549501	 70.437810	 1.328713	-1.301453	 28.527550	 2.584004	-0.917758	 2.295723	 2.369606	-1.050144	 3.848076	-2.750894	-1.022745	-3.311183	 6.658226	-113.437700	 5.484977	 93.016280	 8.313832	 52.698350	 34.029380	 7.943609	-0.255192	-2.211757	-4.361812	-8.093614	-31.716400	-6.580301	 5.266122	 0.000000	 0.000000	 0.000000	 0.000000	 0.000000	 0.000000	 0.000000	 5.213605	-0.385297	-0.063652	 3.530037	 1.808026	 3.825941	 114.275200	-4.798248	-88.103710	-35.862010	 25.298470	 7.922682	-110.362000	-1.994700	-0.822969	-49.329690	-5.963045	-20.827900	-0.477210	 13.918030	 0.769485	 12.041410	 12.581140	-2.803152	-8.392682	 4.950779	-0.010679
 0.010753	 1.268935	-0.004582	 0.427932	 1.671683	 178.822200	-175.623800	 5.096914	-21.870110	 3.311149	-16.307340	 3.428134	-5.104164	 69.334960	 5.515584	 1.331492	 28.938720	-2.729976	 177.252600	 6.148986	 25.196390	-5.209370	-16.675110	-7.516973	-0.641448	 70.495090	 1.349988	-1.298582	 28.491610	 2.650144	-1.039135	 2.344484	 5.377475	-1.149921	 3.941571	-2.186200	-1.020841	-3.141147	 5.488957	-113.438600	 5.507593	 93.037990	 8.930347	 53.324630	 32.917810	 8.017634	-0.255489	-2.260289	-2.751765	-8.851922	-28.581530	-6.580301	 5.266122	 0.000000	 0.000000	 0.000000	 0.000000	 0.000000	 0.000000	 0.000000	 5.289316	-0.344604	-0.184945	 4.222199	 1.651776	 3.267819	 114.271100	-4.768769	-88.118710	-33.682870	 22.147060	-4.214024	-112.855100	-1.955995	-0.865048	-49.896050	-3.753959	-26.963420	-0.517996	 15.055350	 0.779694	 12.072770	 13.693790	-3.047199	-8.403310	 5.564562	-0.049685
 0.013008	 1.268786	-0.003145	 0.372231	 1.738559	 179.094100	-175.612400	 5.146904	-21.606440	 3.302758	-16.268280	 3.572950	-4.783034	 69.208980	 5.105239	 1.331492	 28.938720	-2.729976	 177.255100	 6.202233	 25.442440	-5.244350	-16.780490	-7.523385	-0.713663	 70.560470	 1.369432	-1.296038	 28.460260	 2.707853	-1.154166	 2.398667	 7.948851	-1.198220	 3.977874	-1.708881	-1.039863	-2.927379	 4.415452	-113.439400	 5.527373	 93.056950	 9.669328	 53.782710	 31.767810	 8.082363	-0.255763	-2.302251	-1.356729	-9.189453	-25.745730	-6.580301	 5.266122	 0.000000	 0.000000	 0.000000	 0.000000	 0.000000	 0.000000	 0.000000	 5.355463	-0.309219	-0.290850	 4.825734	 1.510060	 2.769010	 114.267500	-4.743024	-88.131790	-33.181740	 19.010330	-13.483040	-113.352500	-1.945979	-0.840687	-50.248400	-2.098208	-30.944200	-0.553942	 16.047740	 0.789337	 12.104270	 14.664550	-3.261641	-8.412251	 6.100232	-0.083668
 0.014939	 1.268598	-0.001590	 0.278801	 1.794034	 179.426000	-175.663200	 5.249399	-21.259350	 3.293115	-16.223330	 3.835875	-4.126295	 69.116010	 4.363366	 1.331492	 28.938720	-2.729976	 177.195800	 6.295008	 25.816270	-5.301371	-16.952040	-7.473793	-0.639090	 70.654490	 1.214718	-1.294307	 28.439570	 2.754797	-1.284456	 2.484099	 10.665790	-1.228197	 3.915732	-1.241901	-1.087084	-2.570487	 3.171823	-113.440000	 5.494308	 93.052280	 10.790390	 54.096730	 30.661660	 8.155437	-0.256183	-2.348362	-0.040903	-9.508004	-22.695790	-6.580301	 5.266122	 0.000000	 0.000000	 0.000000	 0.000000	 0.000000	 0.000000	 0.000000	 5.306940	-0.280634	-0.380129	 5.128995	 1.367113	 2.251855	 114.261500	-4.701345	-88.156450	-31.982930	 19.007230	-19.720770	-112.218500	-1.960709	-0.752963	-44.411540	-0.341283	-30.289590	-0.599731	 17.297790	 0.802476	 12.149520	 15.887180	-3.533965	-8.422476	 6.736609	-0.123977
